<svg xmlns="http://www.w3.org/2000/svg" width="69" height="64"><path fill="#E20412" stroke="#E20412" d="M33 3h3q-1.1 2.7 1.5 2v3q-2.6-.7-1.5 2h-3l.5-2q1.3 2.3 2.5-.5V5q-4.1 1.3-3-2Z" opacity=".576"/><path fill="#E20412" stroke="#E20412" d="M31.5 5q3 1.5 0 3V5ZM34.5 14l2.5 4-5-.5 4-1-3-1 1.5-1.5ZM27.5 17l3.5.5-3.5.5v-1ZM38 17l4 .5-3.5 1.5-.5-2ZM15.5 19l1 2-1-2ZM28.5 19l1 2-1-2ZM53.5 19l-1 2 1-2ZM13.5 20l2.5 3.5-4 3q5.5-2.5 1-5l.5-1.5ZM24.5 20l1 2-1-2ZM55.5 20l.5 1.5-2 2 2.5 3.5-3.5-3.5 1-1 1.5-2.5ZM34.5 21l3 3q1.3-2.3 2.5.5L37.5 29l-2-1-2 1h-2q-3 .9-1.5-3.5-2.2-1.2.5-2.5l1 1 3-3Zm-.5 2q0 4 2 1l-2-1ZM28.5 22l-1 2 1-2ZM23.5 23l3.5 2.5q-1.4 2.8-6 1.5l2.5-4ZM44.5 23l3.5 2.5-.5 1.5H42l2.5-4ZM53.5 26 52 28.5l1 1q1.1 3.3-1.5 2.5l-1.5.5 1-4 2.5-2.5ZM16.5 27q2.5 1.2 1.5 5-3 1.3-2-2.5l.5-2.5ZM14.5 28l-.5 1.5-1.5 3.5.5-1.5 1.5-3.5ZM54.5 28l2.5 4.5-2-1-.5-3.5ZM63 28l2 .5-2 1V28ZM31.5 30l2 1h2l1.5.5-1.5.5-1.5-.5-.5 1.5-2-3ZM7.5 31l2 3-2-3ZM36.5 33q2.3-.7 1.5 1.5l-.5 2.5-2-1h-2l-2 1v-3l3 2 2.5-1.5-.5-1.5ZM63.5 33l1 2-1-2ZM12.5 34l.5 2.5h-1l.5-2.5ZM21.5 34l1 2 1-2 .5 2q2.7 1.1 2-1.5h1V37h-6l.5-3ZM42.5 34l.5 2q2.7 1.1 2-1.5h1l.5 1.5 1-2 .5 3h-6l.5-3ZM56.5 34l.5 2.5h-1l.5-2.5ZM58.5 34l1 2-1-2ZM5.5 37q3 1.5 0 3v-3ZM58 37q3.3-1.1 2 3-3.3 1.1-2-3ZM30 38h8.5l.5 2h-8.5l-.5-2ZM3.5 42l2 1 3.5-.5L6.5 45h-2L2 44.5l3-1L3.5 42ZM35.5 42l3 1 1.5-.5-.5 2.5h-2l-2.5-.5 3-1q-3.3.1-2.5-1.5ZM43.5 42l-1 2 1-2ZM51.5 42q3 1.5 0 3-3-1.5 0-3ZM62.5 42l2.5 1.5-1.5-.5-1.5.5.5 1.5q-3-1.5 0-3ZM21.5 43l3.5 1.5-3 1q.8 2.3-1.5 1.5l1-4ZM56.5 43l-1 2 1-2ZM58.5 43l1 2-1-2ZM34.5 47l1 2-1-2ZM58.5 47l.5 2.5h-1l.5-2.5ZM20.5 48q3.3 1.8 1.5 8.5h-1l-.5-7.5-2 1v-1l2-1ZM23.5 48l2 3-2-3ZM44.5 48l1.5 2.5-2-1 .5-1.5ZM33.5 49l.5 3-2-.5 1.5-2.5ZM28.5 51l1.5 2.5-2-1 .5-1.5ZM53.5 51l1.5 2.5h-1l-.5-2.5ZM61.5 51l2.5.5-2.5.5v-1ZM58.5 52l.5 2.5h-1l.5-2.5ZM41.5 55l-1 2 1-2Z" opacity=".576"/><path fill="#E30412" stroke="#E30412" d="m37.5 18 .5 2.5h-1l.5-2.5ZM31.5 23l1 2-2.5-.5 1.5-1.5ZM39.5 23l-1 2 1-2ZM15.5 24q4.5 1 3.5 7.5h-1v-4L15.5 24ZM41.5 24l.5 2.5h-1l.5-2.5ZM53.5 24l-2 3 2-3ZM61.5 25l.5 1.5-2 1 1.5-2.5ZM54.5 26l1 2-1-2ZM31.5 29l1 2-1-2ZM62.5 30l3 4q-1.7-3.1-3.5-1.5l.5-2.5ZM37.5 31l-1 2 1-2ZM41.5 31l.5 6.5h-1l.5-6.5ZM5.5 32 9 34.5 6.5 33l-1-1ZM18.5 33l.5 4.5h-1l.5-4.5ZM20.5 33l.5 2.5h-1l.5-2.5ZM32.5 34l-1 3 4-1 1 2q-5.2 1.3-6.5-1.5l2.5-2.5ZM36.5 34l2.5 3.5h-1L36.5 34ZM2.5 36l7.5.5-7.5.5v-1ZM59.5 36l7.5.5-7.5.5v-1ZM2.5 40l7.5.5-7.5.5v-1ZM59.5 40l7.5.5-7.5.5v-1ZM15.5 49l.5 2.5h-1l.5-2.5Z" opacity=".925"/><path fill="#E30412" stroke="#E30412" d="M32.5 5v3q-3-1.5 0-3ZM33.5 12l2.5.5-2.5.5v-1ZM31.5 13l-3 4 3-4ZM37.5 13l3 4-3-4ZM33.5 14h2l2.5 2.5-5-1q.8 2.3-1.5 1.5l2-3ZM23.5 20v2l2 1 1.5-.5-.5 1.5q3-.8 1.5 3l-2-.5q2.8-1.7-1.5-3.5l-3 2-1.5-1.5 3.5-3.5ZM39.5 20l1 2-1-2ZM44.5 20l4.5 3.5q-1.7 3.3-3.5-.5l-3 2-1.5-1.5 3.5-3.5ZM52.5 21l1 2-1-2ZM33.5 23l2.5.5q-2.1 3.3-2.5-.5ZM7.5 26q3.3 1.8-.5 3.5L6.5 31l-2-3 2 1 1-3ZM35.5 28l2 1 1.5-.5-1.5 2.5-2.5-.5 2-1-1.5-1.5ZM61.5 28l1 2-1-2ZM27.5 31l.5 5.5h-1l-.5-3.5h-2l-2 1 1-2 2 1 2-2ZM61.5 31l.5 2.5-1.5 1.5q-3.5-2 1-4ZM44.5 32l2.5 1.5-1.5-.5-2 1 1-2ZM32.5 33q1.8 3.1 3.5 1.5L34.5 36l-2-3ZM15.5 34l.5 2.5h-1l.5-2.5ZM53.5 34l.5 2.5h-1l.5-2.5ZM9.5 37l.5 2.5H9l.5-2.5ZM62.5 37l.5 2.5h-1l.5-2.5ZM30.5 40l8.5.5-8.5.5v-1ZM15.5 42l2.5 1.5-5.5.5v-1l3-1ZM2.5 43l2.5.5-2.5.5v-1ZM26.5 43l2.5.5-2.5.5v-1ZM35.5 43l2.5.5-2.5.5v-1ZM43.5 43l2.5.5-2.5.5v-1ZM55.5 43l2.5.5q-2.1 3.3-2.5-.5ZM5.5 47q3.3-1.1 2.5 1.5L6.5 48l-1-1ZM64.5 47l2.5.5-2.5.5v-1ZM39.5 49l2.5 1.5-1.5-.5-1-1ZM66.5 49l.5 4.5h-1l.5-4.5ZM61.5 50l2.5.5-2.5.5v-1ZM23.5 51l.5 2.5h-1l.5-2.5ZM13.5 52l1.5 2.5-2-1 .5-1.5Z" opacity=".792"/><path fill="#E20412" stroke="#E20412" d="m29.5 19 1.5 1.5-.5 2.5-1.5-1.5.5-2.5ZM38.5 20q3 1.5 0 3v-3ZM16.5 24l1 2-1-2ZM52.5 24l-2 3 2-3ZM29.5 25l.5 12.5q-2.5 4.8-5 3l-.5 1.5-1-2q-1.2 2.3-2.5-.5l5.5.5 2.5-2.5.5-12.5ZM39.5 26l.5 11.5 2.5 2.5 3.5-.5-3.5 1.5-3.5-3.5.5-11.5ZM62.5 33l2 3-4.5-.5 2.5-2.5ZM51 34l2 .5-.5 2.5q-3 .7-1.5-3ZM64.5 37l1.5.5-2 1 .5 1.5q-3-1.5 0-3ZM49.5 38l2 2 3.5-.5-3.5 1.5-2-3ZM14.5 39l3.5 1.5h-2l1 2-2-1-.5-2.5ZM23.5 44l-1 2 1-2ZM8.5 47l1 2-1-2ZM63.5 47l.5 2.5h-1l.5-2.5ZM53.5 48l.5 2.5h-1l.5-2.5ZM29.5 49l1 2-2.5-.5 1.5-1.5ZM57.5 52l.5 3.5h-1l.5-3.5ZM63.5 52l.5 3.5h-1l.5-3.5ZM8.5 53l-1 2 1-2ZM37.5 54l-1 2 1-2Z" opacity=".227"/><path fill="#E20412" stroke="#E20412" d="m23.5 16 1 2-2.5-.5 1.5-1.5ZM44 16l3 1.5-3 .5v-2ZM35.5 18l.5 3q-3.8 1.5-3-1.5h2l.5-1.5ZM11.5 27l.5 4.5h-1l.5-4.5ZM41.5 27l.5 2.5h-1l.5-2.5ZM52.5 28l2 1 1.5-.5-1.5 3.5-.5-3-1.5-1ZM14.5 29l.5 2.5h-1l.5-2.5ZM34.5 32l1 2-1-2ZM11.5 33l.5 4.5-1.5 2.5-.5-2.5 1-2q-2.3-1.2.5-2.5ZM23.5 33l1.5 2.5h-1l-.5-2.5ZM45.5 33l-.5 1.5-.5 1.5-.5-1.5 1.5-1.5ZM14.5 34l.5 2.5-2-1 1.5-1.5ZM54.5 34q3 1.5 0 3v-3ZM29.5 38l.5 3-3-.5 2-.5.5-2ZM39.5 39l2.5 1.5-1.5.5-1-2ZM50.5 40l1 2-1-2ZM56.5 40l2.5.5-2.5.5v-1ZM21.5 42l-1 2 1-2ZM29.5 42l2.5.5-2.5.5v-1ZM45.5 42l2.5 1.5q-1.5 3-7.5 1.5v-1l6.5-.5-1.5-1.5ZM57.5 42l3.5.5-3.5.5v-1ZM9.5 44l3.5.5-3.5.5v-1ZM28.5 44l4.5.5-4.5.5v-1ZM57.5 44l1.5.5-2.5 1.5 1-2ZM63.5 44l2.5 1.5-1.5-.5-1-1ZM22.5 46l1 2-1-2ZM11.5 49l3.5 2.5-1.5-.5-2-2ZM36.5 50l1 2q-2.8.7-1-2ZM49.5 52l1.5 2.5-2-1 .5-1.5ZM61.5 52l.5 2.5-3.5 1.5v-1q4 1.1 3-3ZM45.5 55l1 2-1-2ZM64.5 55l2.5.5-2.5.5v-1Z" opacity=".408"/><path fill="#E20312" stroke="#E20312" d="m24.5 16 1 2-1-2ZM33.5 18l1 2-1-2ZM13.5 19l2 3-2-3ZM54.5 20l-1 2 1-2ZM14.5 27q3.4-.9 1.5 4.5l.5 1.5-3.5-.5 2-.5-.5-4-1.5.5 1.5-1.5ZM20.5 27H28v4l-3.5-1-3 1-1.5-1.5.5-2.5ZM42 27h5.5l.5 1.5 1 2.5-5.5-1-2 1 .5-1.5V27ZM57.5 27l.5 4.5h-1l.5-4.5ZM62.5 28l-1 2 1-2ZM53.5 29l.5 3 2 .5-3 .5.5-4ZM3.5 32l-1 2 1-2ZM25.5 32l-1 2 1-2ZM46.5 32l1 2-1-2ZM33.5 33l1 2-1-2ZM57.5 33l1.5 2.5-3.5 5.5-1-2-4.5.5-.5 1.5-2.5-1.5-.5 1.5-1-2-6.5 1.5.5-2.5h8l2 1h6l1.5-1.5.5-4.5ZM4.5 34l-1 2 1-2ZM6 34l2 .5-2 1V34ZM7 37q3.3-1.1 2 3-3.3 1.1-2-3ZM12 38l3.5 1 5-1 2 1 5-1 1.5 1.5h-8q.8 2.3-1.5 1.5l-3-2-2.5.5-.5 1.5h-2l-1.5-.5 2-.5v-2ZM12.5 47l-1 2 1-2ZM9.5 50l-1 2 1-2ZM36.5 52l.5 2.5h-1l.5-2.5ZM29.5 54l1 2-1-2Z" opacity=".322"/><path fill="#E20412" stroke="#E20412" d="m32.5 14-1 2 1-2ZM36.5 14l1 2-1-2ZM31.5 20l.5 2.5h-1l.5-2.5ZM12.5 28l.5 2.5h-1l.5-2.5ZM3.5 33l1.5.5L2.5 35l1-2ZM48.5 34l.5 2.5h-1l.5-2.5ZM42.5 46l1 2-1-2ZM34.5 48l1 2-1-2ZM60.5 48l.5 1.5-2 1 1.5-2.5ZM39.5 52l.5 2.5-.5 1.5-1.5-2.5 1.5-1.5ZM30.5 53l1 2-1-2ZM48.5 54l-1 2 1-2ZM43.5 57l-1 2 1-2Z" opacity=".996"/><path fill="#E5010E" stroke="#E5010E" d="M33.5 2 33 3.5 32.5 5 32 3.5 33.5 2ZM34.5 5l1 2-2.5-.5L34.5 5ZM30.5 7 33 8l-.5 2-2-3ZM38.5 7l-1 2-1.5-.5L38.5 7ZM31.5 12l-6 7 .5-1.5q-.7-2.2 1.5-1.5l4-4ZM37.5 12l6 7-6-7ZM16.5 18l1 2-1-2ZM29.5 18l1 2-1-2ZM39.5 18l.5 2-2-.5 1.5-1.5ZM52.5 18l-1 2 1-2ZM25.5 20l2.5 1 .5 2 1.5-.5-1.5 2.5-3-5ZM43.5 20 41 23.5l-.5 7.5-1.5-5.5 1-2-.5-1.5 1.5.5q-.7-2.2 1.5-1.5l1-1ZM46.5 20l3 4-3-4ZM21.5 21 20 23.5 19.5 38 19 27.5l-1-1 3.5-5.5ZM3.5 24 5 29.5l-2-1 .5-4.5ZM13.5 24l-2 3 2-3ZM55.5 24l2 3-2-3ZM65.5 24l.5 3.5h-1l-1-2 1.5-1.5ZM9.5 27l-1 2 1-2ZM28.5 27l.5 2.5h-1l.5-2.5ZM49.5 27l.5 10.5h-1l.5-10.5ZM7.5 30l2 3-2-3ZM61.5 30l-3 4 3-4ZM1.5 34l.5 6.5H1l.5-6.5ZM67.5 34l.5 6.5h-1l.5-6.5ZM30.5 41h9l1.5 1.5-1.5-.5h-9v-1ZM54.5 44l1 2-1-2ZM18.5 50l.5 2.5h-1l.5-2.5ZM28.5 54l1 2-2.5-.5 1.5-1.5ZM20.5 59l.5 2.5h-1l.5-2.5Z" opacity=".067"/><path fill="#E30413" stroke="#E30413" d="m32.5 13 1.5.5-3 2q.8 2.3-1.5 1.5l3-4ZM35.5 13l4.5 3.5-2 .5-1.5-3-1-1ZM23.5 21l3.5 2.5-2.5-1.5-2 1 1-2ZM44.5 21l-1 2 1-2ZM46.5 22l1 2-1-2ZM20.5 24l.5 2.5h-1l.5-2.5ZM7.5 25v3q-2.2.8-1.5-1.5L7.5 25ZM53.5 25l1.5.5-4.5 2.5v-1l3-2ZM62.5 26l.5 2-2-.5 1.5-1.5ZM56.5 27l.5 4.5h-1l.5-4.5ZM50.5 29l.5 2.5h-1l.5-2.5ZM30.5 30l.5 3.5h-1l.5-3.5ZM6.5 31l1 2-1-2ZM20 31l2 .5-2 1V31ZM47.5 31l1.5 2.5h-1l-.5-2.5ZM38.5 32l.5 3.5h-1l.5-3.5ZM50 33l2 .5-2 1V33ZM20.5 36l1 2q-2.8.7-1-2ZM46.5 37l2.5.5-2.5.5v-1ZM42.5 47l1.5 2.5-1 2 1 3.5-2-.5 1-2q-2.4-1.4-.5-5.5ZM4 48l2 .5-2 3 2 3-1.5-.5q-3 .9-1.5-3.5L4 48ZM16.5 48l1.5 4.5-1.5 2.5-.5-2.5v-2l.5-2.5ZM51.5 48q2.3-.7 1.5 1.5L51.5 48ZM59.5 48q2.4 2.3 1.5 7-3.3 1.3-2-3.5v-2l.5-1.5ZM64.5 48q3.4-.9 1.5 4.5L64.5 55l-.5-4.5.5-2.5ZM7 49l2 .5-2 1V49ZM34.5 49q2.3.8 1.5 4.5l-2 1 1-2-.5-3.5ZM39.5 50l.5 1.5-1.5 3.5-.5-2.5 1.5-2.5ZM55 50q3-1.2 2 2.5l-.5 2.5H55v-5ZM13.5 51l-.5 1.5 1 2-1.5.5q-3.5-2 1-4ZM31.5 51l.5 2.5-2 1 1.5-3.5ZM47.5 51q2.6-.8 1.5 2.5l-2 1 1-2-.5-1.5ZM52.5 51l.5 4q-3 1.3-2-2.5l1.5-1.5ZM26 52q2.7-1.1 2 1.5l-2 1V52ZM22.5 55q2.8 1.4 1.5 6-2.7 1.1-2-1.5l1-2-.5-2.5ZM43.5 58l.5 2-2-.5 1.5-1.5Z" opacity=".996"/></svg>