<svg width="16" height="17" viewBox="0 0 16 17" fill="none" xmlns="http://www.w3.org/2000/svg">
<path d="M14.5833 16.1693L9.10417 10.3404C8.6875 10.7246 8.20139 11.0238 7.64583 11.238C7.09028 11.4523 6.5 11.5594 5.875 11.5594C4.375 11.5594 3.10417 11.0053 2.0625 9.89717C1.02083 8.78901 0.5 7.45183 0.5 5.88564C0.5 4.31945 1.02083 2.98227 2.0625 1.87412C3.10417 0.76596 4.36806 0.211882 5.85417 0.211882C7.32639 0.211882 8.57986 0.76596 9.61458 1.87412C10.6493 2.98227 11.1667 4.31945 11.1667 5.88564C11.1667 6.52098 11.0694 7.13416 10.875 7.72518C10.6806 8.3162 10.3889 8.87027 10 9.38741L15.5 15.1942L14.5833 16.1693ZM5.85417 10.2296C6.97917 10.2296 7.9375 9.80482 8.72917 8.95523C9.52083 8.10565 9.91667 7.08245 9.91667 5.88564C9.91667 4.68883 9.52083 3.66563 8.72917 2.81605C7.9375 1.96646 6.97917 1.54167 5.85417 1.54167C4.71528 1.54167 3.74653 1.96646 2.94792 2.81605C2.14931 3.66563 1.75 4.68883 1.75 5.88564C1.75 7.08245 2.14931 8.10565 2.94792 8.95523C3.74653 9.80482 4.71528 10.2296 5.85417 10.2296Z" fill="#6B7073"/>
</svg>
