<svg width="24" height="20" viewBox="0 0 24 20" fill="none" xmlns="http://www.w3.org/2000/svg">
<path d="M23.7006 1.6022C23.6662 1.69414 23.6684 1.79297 23.6478 1.88721C23.4938 2.60434 23.3421 3.32147 23.1881 4.03859C22.9329 5.2361 22.6778 6.43361 22.4227 7.63112C22.1193 9.05618 21.8136 10.4789 21.5102 11.904C21.2367 13.1912 20.9608 14.476 20.6873 15.7632C20.5103 16.5929 20.3333 17.4204 20.1541 18.2501C20.1127 18.4432 20.0437 18.6317 19.9472 18.8064C19.6921 19.273 19.2829 19.4453 18.7704 19.3051C18.4831 19.227 18.2348 19.0753 17.9958 18.9006C16.3478 17.6893 14.6952 16.4803 13.0449 15.2713C12.9943 15.2345 12.9667 15.2299 12.9184 15.2782C12.0519 16.1102 11.1831 16.9377 10.3166 17.7697C10.1258 17.9513 9.91891 18.1007 9.65459 18.1467C9.57414 18.1605 9.4937 18.1697 9.41325 18.1697C9.37877 18.1697 9.36958 18.1605 9.37188 18.1237C9.41095 17.5836 9.45002 17.0411 9.4891 16.501C9.51438 16.1378 9.53967 15.777 9.56495 15.4138C9.60172 14.9012 9.6385 14.3887 9.67528 13.8761C9.69596 13.575 9.72124 13.2762 9.73504 12.9751C9.73963 12.8786 9.76721 12.8096 9.84307 12.743C11.5141 11.2466 13.1828 9.74803 14.8515 8.24942C16.2329 7.01053 17.6119 5.76935 18.9933 4.53047C19.1657 4.37647 19.3381 4.22017 19.5105 4.06617C19.5703 4.01331 19.6277 3.96044 19.6622 3.88689C19.7151 3.78116 19.6806 3.69612 19.568 3.65934C19.4576 3.62257 19.345 3.63866 19.237 3.66624C19.1175 3.69612 19.0094 3.74898 18.9037 3.81334C16.5477 5.28667 14.1918 6.7623 11.8381 8.23563C10.1694 9.27914 8.50075 10.3249 6.83205 11.3685C6.79757 11.3891 6.76999 11.4029 6.72632 11.3914C4.99096 10.8513 3.25331 10.3112 1.51795 9.76871C1.31109 9.70436 1.11802 9.61472 0.950228 9.46991C0.6905 9.24696 0.665216 8.96425 0.883572 8.69992C1.07205 8.47007 1.32258 8.32527 1.58921 8.21034C2.09947 7.98969 2.62353 7.80581 3.14298 7.60584C6.26203 6.40833 9.37877 5.21542 12.4955 4.0225C15.0836 3.03186 17.6717 2.04121 20.2575 1.05056C20.908 0.802326 21.5584 0.551791 22.2112 0.305853C22.4526 0.213914 22.7031 0.181735 22.9582 0.246092C23.3513 0.344927 23.5627 0.61385 23.657 0.9931C23.6753 1.07125 23.6868 1.1517 23.7029 1.22984C23.7006 1.35166 23.7006 1.47808 23.7006 1.6022Z" fill="#6B7073"/>
</svg>
