<svg width="24" height="15" viewBox="0 0 24 15" fill="none" xmlns="http://www.w3.org/2000/svg">
<path d="M13.9159 4.27965C13.9159 5.1209 13.9113 5.96444 13.9182 6.80569C13.9205 6.96658 13.9412 7.13437 13.9895 7.28837C14.0745 7.55729 14.2584 7.64693 14.5204 7.5435C14.6721 7.48374 14.8192 7.3895 14.9479 7.28837C15.4306 6.90452 15.8099 6.42644 16.1684 5.92996C17.1223 4.61293 17.8831 3.18557 18.5313 1.69845C18.6922 1.3284 18.9197 1.03649 19.3334 0.946849C19.4461 0.921566 19.5633 0.910073 19.6782 0.910073C20.5034 0.907775 21.3308 0.905476 22.156 0.910073C22.2893 0.910073 22.4272 0.926163 22.5582 0.958341C22.8777 1.04109 23.0294 1.28243 22.9765 1.60881C22.9076 2.01794 22.7513 2.39719 22.572 2.76725C22.1284 3.68434 21.602 4.55317 21.0527 5.41051C20.593 6.12993 20.1172 6.83787 19.6506 7.55269C19.5633 7.68601 19.4851 7.82392 19.4093 7.96412C19.2967 8.16869 19.2875 8.38704 19.4208 8.57782C19.5794 8.80537 19.7472 9.03292 19.9448 9.22599C20.701 9.973 21.4274 10.7453 22.0962 11.5704C22.4939 12.06 22.8961 12.5473 23.1903 13.1081C23.3029 13.3242 23.3949 13.5609 23.4454 13.7977C23.542 14.2528 23.296 14.5769 22.834 14.6504C22.7168 14.6688 22.595 14.6757 22.4755 14.6757C21.6802 14.678 20.8872 14.6711 20.0919 14.6803C19.6989 14.6849 19.3564 14.5654 19.0806 14.2942C18.7542 13.9724 18.4416 13.6368 18.1336 13.2966C17.4579 12.5496 16.7729 11.8141 15.9731 11.1958C15.6788 10.9682 15.3731 10.7614 15.0238 10.6212C14.81 10.5361 14.5917 10.5131 14.3664 10.5384C14.1205 10.566 13.9987 10.6694 13.955 10.9154C13.9274 11.0763 13.9136 11.2395 13.9136 11.4027C13.909 12.1382 13.9113 12.8714 13.9113 13.6069C13.9113 13.7034 13.9136 13.8 13.8998 13.8942C13.8492 14.2643 13.6401 14.4619 13.2011 14.5562C12.7253 14.6596 12.2426 14.6711 11.7599 14.6412C9.9786 14.5332 8.42942 13.8322 7.02735 12.768C5.96085 11.9589 5.09202 10.9659 4.33582 9.86727C3.20727 8.23075 2.20053 6.52757 1.41675 4.70027C1.04669 3.83834 0.718007 2.96262 0.534128 2.03863C0.492755 1.82947 0.481263 1.61111 0.495054 1.39965C0.508845 1.15371 0.672037 1.00431 0.901886 0.937655C1.01681 0.905476 1.13633 0.88479 1.25585 0.88479C2.14307 0.880193 3.02798 0.882491 3.9152 0.882491C4.33122 0.882491 4.64152 1.06407 4.80701 1.44792C4.94032 1.75821 5.05065 2.08 5.17017 2.39719C5.77237 4.00383 6.50329 5.54612 7.45027 6.98037C7.76286 7.45386 8.09614 7.91356 8.52136 8.2951C8.65008 8.41003 8.79718 8.51576 8.95118 8.59161C9.24539 8.73411 9.48673 8.61 9.55108 8.29051C9.58326 8.13191 9.59935 7.96642 9.59935 7.80323C9.60395 6.52987 9.60855 5.25651 9.59935 3.98315C9.59475 3.2982 9.39249 2.67301 8.94888 2.13517C8.87073 2.04093 8.79718 1.93979 8.72823 1.83866C8.59491 1.63869 8.56044 1.42264 8.67766 1.20658C8.79948 0.981326 9.00175 0.88479 9.25228 0.882491C9.81081 0.880193 10.3693 0.882491 10.9279 0.882491C11.6634 0.882491 12.3966 0.882491 13.1321 0.882491C13.2126 0.882491 13.2907 0.887089 13.3712 0.898581C13.6378 0.935357 13.8079 1.09395 13.863 1.35368C13.8975 1.51687 13.9136 1.68466 13.9136 1.85245C13.9182 2.65922 13.9159 3.47059 13.9159 4.27965Z" fill="#6B7073"/>
</svg>
